{"title":"Salt UNRATED DC DVDRip XviD-VAMPS-[tracker.BTARENA.org]","uid":5963493,"size":1467889293,"categoryP":"video","categoryS":"movies","magnet":"?xt=urn:btih:fba956625f9866b41e2521415ea023fe9171ed70&amp;dn=Salt+UNRATED+DC+DVDRip+XviD-VAMPS-%5Btracker.BTARENA.org%5D&amp;tr=udp%3A%2F%2Ftracker.openbittorrent.com%3A80&amp;tr=udp%3A%2F%2Fopen.demonii.com%3A1337&amp;tr=udp%3A%2F%2Ftracker.coppersurfer.tk%3A6969&amp;tr=udp%3A%2F%2Fexodus.desync.com%3A6969","seeders":0,"leechers":0,"uploader":"AiTB","files":101,"time":1290030007,"description":"info, sample, subs\n  &lt;a href=&quot;\nhttp://www.btarena.org/movies/dvdrip/salt-unrated-dc-dvdrip-xvid-vamps&quot; rel=&quot;nofollow&quot; target=&quot;_NEW&quot;&gt;\nhttp://www.btarena.org/movies/dvdrip/salt-unrated-dc-dvdrip-xvid-vamps&lt;/a&gt;\n\n\n\nSalt (2010) Unrated Directors Cut\n\n\nDuration                         : 1h 44mn\nOverall bit rate                 : 1 481 Kbps\n\nVideo\nID                               : 0\nFormat                           : MPEG-4 Visual\nFormat profile                   : Advanced Simple@L5\nFormat settings, BVOP            : Yes\nFormat settings, QPel            : No\nFormat settings, GMC             : No warppoints\nFormat settings, Matrix          : Default (H.263)\nCodec ID                         : XVID\nCodec ID/Hint                    : XviD\nDuration                         : 1h 44mn\nBit rate                         : 1 423 Kbps\nWidth                            : 640 pixels\nHeight                           : 272 pixels\nDisplay aspect ratio             : 2.35:1\nFrame rate                       : 23.976 fps\nColor space                      : YUV\nChroma subsampling               : 4:2:0\nBit depth                        : 8 bits\nScan type                        : Progressive\nBits/(Pixel*Frame)               : 0.341\nStream size                      : 1.03 GiB (76%)\nWriting library                  : XviD 1.2.1\n\nAudio\nID                               : 1\nFormat                           : AC-3\nFormat/Info                      : Audio Coding 3\nMode extension                   : CM (complete main)\nCodec ID                         : 2000\nDuration                         : 1h 44mn\nBit rate mode                    : Constant\nBit rate                         : 448 Kbps\nChannel(s)                       : 6 channels\nChannel positions                : Front: L C R, Side: L R, LFE\nSampling rate                    : 48.0 KHz\nBit depth                        : 16 bits\nStream size                      : 333 MiB (24%)\nAlignment                        : Split accross interleaves\nInterleave, duration             : 42 ms (1.00 video frame)\nInterleave, preload duration     : 500 ms\n\nSubtitles\nID                               : 2\nLanguage                         : English\t\t","torrent":{"xt":"urn:btih:fba956625f9866b41e2521415ea023fe9171ed70","amp;dn":"Salt+UNRATED+DC+DVDRip+XviD-VAMPS-%5Btracker.BTARENA.org%5D","amp;tr":["udp%3A%2F%2Ftracker.openbittorrent.com%3A80","udp%3A%2F%2Fopen.demonii.com%3A1337","udp%3A%2F%2Ftracker.coppersurfer.tk%3A6969","udp%3A%2F%2Fexodus.desync.com%3A6969"],"infoHash":"fba956625f9866b41e2521415ea023fe9171ed70","infoHashBuffer":{"type":"Buffer","data":[251,169,86,98,95,152,102,180,30,37,33,65,94,160,35,254,145,113,237,112]},"announce":[],"urlList":[]}}